<?xml version="1.0" encoding="iso-8859-1"?>
<!-- Generator: Adobe Illustrator 19.0.0, SVG Export Plug-In . SVG Version: 6.00 Build 0)  -->
<svg version="1.1" id="Layer_1" xmlns="http://www.w3.org/2000/svg" xmlns:xlink="http://www.w3.org/1999/xlink" x="0px" y="0px"
	 viewBox="0 0 512 512" style="enable-background:new 0 0 512 512;" xml:space="preserve">
<g>
	<rect x="165.956" y="159.26" style="fill:#FF7226;" width="180.089" height="16.879"/>
	<rect x="114.688" y="92.295" style="fill:#FF7226;" width="276.322" height="16.879"/>
	<rect x="160.329" y="335.861" style="fill:#FF7226;" width="191.342" height="16.879"/>
	<rect x="120.978" y="402.837" style="fill:#FF7226;" width="276.322" height="16.879"/>
	<rect x="89.921" y="25.319" style="fill:#FF7226;" width="321.333" height="16.879"/>
	<rect x="100.746" y="469.802" style="fill:#FF7226;" width="321.333" height="16.879"/>
</g>
<path style="fill:#BD0D38;" d="M73.224,512h33.758c0-119.703,77.392-179.417,159.329-242.636
	c41.615-32.109,84.647-65.31,117.068-107.002C420.655,114.426,438.776,61.317,438.776,0h-33.758
	c0,119.703-77.392,179.417-159.329,242.636c-41.614,32.109-84.645,65.31-117.067,107.002C91.345,397.574,73.224,450.683,73.224,512z
	"/>
<path style="fill:#F56E92;" d="M438.776,512h-33.758c0-119.703-77.392-179.417-159.329-242.636
	c-41.615-32.109-84.647-65.31-117.068-107.002C91.345,114.426,73.224,61.317,73.224,0h33.758
	c0,119.703,77.392,179.417,159.329,242.636c41.614,32.109,84.645,65.31,117.067,107.002
	C420.655,397.574,438.776,450.683,438.776,512z"/>
<g>
</g>
<g>
</g>
<g>
</g>
<g>
</g>
<g>
</g>
<g>
</g>
<g>
</g>
<g>
</g>
<g>
</g>
<g>
</g>
<g>
</g>
<g>
</g>
<g>
</g>
<g>
</g>
<g>
</g>
</svg>
