<?xml version="1.0" encoding="iso-8859-1"?>
<!-- Generator: Adobe Illustrator 19.0.0, SVG Export Plug-In . SVG Version: 6.00 Build 0)  -->
<svg version="1.1" id="Layer_1" xmlns="http://www.w3.org/2000/svg" xmlns:xlink="http://www.w3.org/1999/xlink" x="0px" y="0px"
	 viewBox="0 0 500.907 500.907" style="enable-background:new 0 0 500.907 500.907;" xml:space="preserve">
<g>
	<path style="fill:#D75A4A;" d="M141.653,500.48c-2.56,0-4.267-0.853-5.973-2.56c-3.413-3.413-3.413-8.533,0-11.947
		c35.84-35.84,44.373-81.067,28.16-155.307c-16.213-71.68-18.773-119.467,14.507-152.747
		c32.427-32.427,93.013-42.667,164.693-26.453c69.12,15.36,104.107,23.04,143.36-16.213c3.413-3.413,8.533-3.413,11.947,0
		s3.413,8.533,0,11.947c-45.227,45.227-87.893,35.84-158.72,20.48c-64.853-14.507-121.173-5.973-149.333,22.187
		c-27.307,27.307-24.747,70.827-9.387,136.533c17.92,79.36,7.68,130.56-32.427,170.667C145.92,499.627,143.36,500.48,141.653,500.48
		"/>
	<path style="fill:#D75A4A;" d="M8.533,367.36c-2.56,0-4.267-0.853-5.973-2.56c-3.413-3.413-3.413-8.533,0-11.947
		c40.107-40.107,91.307-50.347,170.667-32.427c65.707,14.507,109.227,17.92,136.533-9.387c28.16-28.16,36.693-83.627,22.187-149.333
		c-15.36-70.827-24.747-112.64,20.48-158.72c3.413-3.413,8.533-3.413,11.947,0c3.413,3.413,3.413,8.533,0,11.947
		C325.12,54.187,332.8,88.32,348.16,158.293c16.213,71.68,6.827,132.267-26.453,164.693c-33.28,33.28-81.067,30.72-152.747,14.507
		c-74.24-16.213-118.613-8.533-155.307,28.16C12.8,366.507,11.093,367.36,8.533,367.36"/>
</g>
<path style="fill:#659C35;" d="M478.72,161.707c-2.56,0-4.267-0.853-5.973-2.56L341.333,27.733c-3.413-3.413-3.413-8.533,0-11.947
	c3.413-3.413,8.533-3.413,11.947,0L484.693,147.2c3.413,3.413,3.413,8.533,0,11.947C482.987,160.853,480.427,161.707,478.72,161.707
	"/>
<path style="fill:#FF5364;" d="M425.813,181.333c-2.56,0-4.267-0.853-5.973-2.56L321.707,80.64c-3.413-3.413-3.413-8.533,0-11.947
	s8.533-3.413,11.947,0l97.28,97.28c3.413,3.413,3.413,8.533,0,11.947C430.08,180.48,427.52,181.333,425.813,181.333"/>
<path style="fill:#8697CB;" d="M179.2,417.707c-2.56,0-4.267-0.853-5.973-2.56l-87.893-87.893c-3.413-3.413-3.413-8.533,0-11.947
	s8.533-3.413,11.947,0l87.893,87.893c3.413,3.413,3.413,8.533,0,11.947C183.467,416.853,181.76,417.707,179.2,417.707"/>
<path style="fill:#0096E6;" d="M157.867,480.853c-2.56,0-4.267-0.853-5.973-2.56L22.187,348.587c-3.413-3.413-3.413-8.533,0-11.947
	c3.413-3.413,8.533-3.413,11.947,0L163.84,466.347c3.413,3.413,3.413,8.533,0,11.947C162.133,480,160.427,480.853,157.867,480.853"
	/>
<path style="fill:#24AE5F;" d="M347.307,247.893c-2.56,0-4.267-0.853-5.973-2.56l-86.187-86.187c-3.413-3.413-3.413-8.533,0-11.947
	c3.413-3.413,8.533-3.413,11.947,0l86.187,86.187c3.413,3.413,3.413,8.533,0,11.947C351.573,247.04,349.013,247.893,347.307,247.893
	"/>
<path style="fill:#CC66A1;" d="M321.707,318.72c-2.56,0-4.267-0.853-5.973-2.56L184.32,184.747c-3.413-3.413-3.413-8.533,0-11.947
	s8.533-3.413,11.947,0l132.267,132.267c3.413,3.413,3.413,8.533,0,11.947C326.827,317.867,324.267,318.72,321.707,318.72"/>
<path style="fill:#F18D46;" d="M255.147,348.587c-2.56,0-4.267-0.853-5.973-2.56l-94.72-94.72c-3.413-3.413-3.413-8.533,0-11.947
	s8.533-3.413,11.947,0l94.72,94.72c3.413,3.413,3.413,8.533,0,11.947C259.413,347.733,257.707,348.587,255.147,348.587"/>
<g>
</g>
<g>
</g>
<g>
</g>
<g>
</g>
<g>
</g>
<g>
</g>
<g>
</g>
<g>
</g>
<g>
</g>
<g>
</g>
<g>
</g>
<g>
</g>
<g>
</g>
<g>
</g>
<g>
</g>
</svg>
